<svg width="24" height="25" viewBox="0 0 24 25" fill="none" xmlns="http://www.w3.org/2000/svg">
<path d="M4.07483 3.27271L5.51741 19.4679L11.9904 21.2727L18.4815 19.4613L19.9252 3.27271H4.07483ZM16.9283 6.98309L16.4481 12.3782L16.4496 12.4073L16.4476 12.4743V12.4738L16.1064 16.2461L16.0688 16.5813L12 17.7066L11.9969 17.7095L7.93514 16.5778L7.66011 13.459H9.65188L9.7932 15.0449L12.0006 15.6431L12 15.6443V15.644L14.2156 15.0373L14.4498 12.4547H9.81816L9.77842 12.0181L9.68789 10.9953L9.64041 10.4461H14.6258L14.8071 8.43757H7.21392L7.17418 8.00129L7.0838 6.97821L7.03616 6.42901H16.9758L16.9283 6.98309Z" fill="#3996DB"/>
</svg>
