<svg width="24" height="25" viewBox="0 0 24 25" fill="none" xmlns="http://www.w3.org/2000/svg">
<path fill-rule="evenodd" clip-rule="evenodd" d="M11.9999 2.76355C6.61589 2.76355 2.25 7.12847 2.25 12.5135C2.25 16.8214 5.04365 20.4759 8.91759 21.7653C9.4047 21.8557 9.58359 21.5538 9.58359 21.2963C9.58359 21.0638 9.57455 20.2957 9.57035 19.481C6.85791 20.0708 6.28556 18.3307 6.28556 18.3307C5.84204 17.2037 5.203 16.9041 5.203 16.9041C4.31823 16.2989 5.26969 16.3115 5.26969 16.3115C6.24858 16.3801 6.76427 17.3163 6.76427 17.3163C7.63386 18.8065 9.04514 18.3757 9.60151 18.1268C9.68902 17.4966 9.9417 17.0663 10.2205 16.8229C8.05494 16.5766 5.77827 15.7405 5.77827 12.0046C5.77827 10.9401 6.1593 10.0703 6.783 9.38739C6.68161 9.14197 6.34788 8.15032 6.87729 6.80734C6.87729 6.80734 7.69586 6.5453 9.55905 7.80675C10.3369 7.59056 11.1712 7.4819 11.9999 7.47819C12.8282 7.4819 13.6629 7.59023 14.4422 7.80642C16.3032 6.54498 17.1208 6.80702 17.1208 6.80702C17.6515 8.14984 17.3177 9.14165 17.2165 9.38706C17.8417 10.07 18.22 10.9398 18.22 12.0042C18.22 15.749 15.9391 16.5734 13.768 16.8149C14.1179 17.1175 14.4295 17.711 14.4295 18.6205C14.4295 19.925 14.4182 20.975 14.4182 21.2961C14.4182 21.5556 14.5938 21.8596 15.0879 21.7638C18.9596 20.4732 21.75 16.8198 21.75 12.5135C21.7498 7.1288 17.3844 2.76355 11.9999 2.76355Z" fill="#C0C4CE"/>
<path d="M5.94279 16.7621C5.92132 16.8106 5.84511 16.8251 5.77568 16.792C5.70464 16.7604 5.66509 16.6943 5.68801 16.6457C5.709 16.5957 5.78537 16.582 5.85593 16.6154C5.92697 16.6472 5.96749 16.7137 5.94279 16.7621ZM6.33771 17.2028C6.29137 17.2459 6.20047 17.2258 6.1388 17.1575C6.07486 17.0897 6.06291 16.9988 6.11022 16.9551C6.15833 16.9121 6.24649 16.9325 6.31042 17.0003C6.37403 17.0691 6.38647 17.159 6.33771 17.2028ZM6.72229 17.7641C6.66255 17.8058 6.56471 17.7669 6.50433 17.6802C6.44459 17.5933 6.44459 17.4892 6.50594 17.4477C6.56617 17.406 6.66255 17.4436 6.72391 17.5295C6.78332 17.6175 6.78332 17.7218 6.72229 17.7641ZM7.2488 18.3068C7.19552 18.3657 7.08153 18.3499 6.99822 18.2696C6.91313 18.191 6.8894 18.0791 6.94284 18.0204C6.99709 17.9613 7.11156 17.9777 7.19535 18.0575C7.28044 18.136 7.30579 18.2482 7.2488 18.3068ZM7.97534 18.6218C7.95161 18.6981 7.84214 18.7329 7.73154 18.7002C7.62127 18.6668 7.5491 18.5775 7.57171 18.5004C7.59431 18.4234 7.70458 18.3873 7.81582 18.4221C7.9261 18.4553 7.99827 18.5441 7.97534 18.6218ZM8.77341 18.6801C8.77616 18.7605 8.68251 18.827 8.56675 18.8286C8.45002 18.8314 8.35557 18.7661 8.35444 18.687C8.35444 18.6058 8.44614 18.5401 8.56271 18.5378C8.67848 18.5357 8.77341 18.6005 8.77341 18.6801ZM9.51578 18.5538C9.52966 18.6321 9.4491 18.7127 9.33398 18.7342C9.22096 18.7551 9.11602 18.7064 9.10149 18.6287C9.0876 18.5483 9.16962 18.4678 9.28264 18.4469C9.39792 18.4271 9.50125 18.4742 9.51578 18.5538Z" fill="#C0C4CE"/>
</svg>
