<svg width="24" height="25" viewBox="0 0 24 25" fill="none" xmlns="http://www.w3.org/2000/svg">
<path d="M2.25024 16.5827L4.51387 15.2352C4.95052 15.9971 5.34806 16.6415 6.30101 16.6415C7.21414 16.6415 7.79018 16.2917 7.79018 14.9224V5.62384H10.5701V14.9609C10.5701 17.7931 8.88252 19.0826 6.42049 19.0826C5.55009 19.129 4.68584 18.9149 3.94155 18.4685C3.19727 18.0221 2.60715 17.3651 2.25024 16.5827ZM12.0806 16.2889L14.3442 14.9994C14.5959 15.5017 14.9866 15.924 15.4713 16.2177C15.956 16.5114 16.5151 16.6646 17.0843 16.6597C18.2364 16.6597 18.9703 16.093 18.9703 15.3114C18.9703 14.3739 18.2158 14.0415 16.9449 13.4923L16.2523 13.2026C14.2468 12.363 12.9162 11.3079 12.9162 9.08089C12.9162 7.02947 14.5049 5.46711 16.9869 5.46711C17.7911 5.40977 18.5947 5.58667 19.2973 5.97575C20 6.36483 20.5706 6.94886 20.9381 7.65497L18.7733 9.02282C18.6313 8.67231 18.3843 8.37254 18.0651 8.16325C17.746 7.95396 17.3697 7.84502 16.9862 7.85088C16.819 7.83424 16.6501 7.85208 16.4903 7.90325C16.3305 7.95442 16.1833 8.03781 16.0581 8.14808C15.9329 8.25836 15.8325 8.3931 15.7632 8.54371C15.6939 8.69432 15.6572 8.8575 15.6556 9.02282C15.6556 9.84353 16.1719 10.1752 17.3624 10.6831L18.0572 10.9763C20.4204 11.9726 21.7502 12.9885 21.7502 15.2737C21.7502 17.7351 19.7846 19.0833 17.1441 19.0833C14.5625 19.0833 12.8949 17.8715 12.0806 16.2889Z" fill="#EABD5F"/>
</svg>
