<svg width="24" height="25" viewBox="0 0 24 25" fill="none" xmlns="http://www.w3.org/2000/svg">
<path d="M19.9457 6.84348L12.8344 2.71429C12.3859 2.45884 11.802 2.45884 11.3499 2.71429L4.16267 6.84348C3.69984 7.10973 3.37231 7.61013 3.37231 8.14537V16.3928C3.37231 16.928 3.70839 17.4286 4.17122 17.6963L6.07012 18.7748C6.97772 19.2219 7.29847 19.2219 7.71147 19.2219C9.05529 19.2219 9.82291 18.4092 9.82291 16.9919V8.84961C9.82291 8.73463 9.76308 8.56353 9.6502 8.56353H8.74341C8.62858 8.56353 8.37153 8.73463 8.37153 8.84945V16.9917C8.37153 17.62 7.80323 18.2452 6.74114 17.7142L4.77903 16.5832C4.71065 16.5461 4.66243 16.4715 4.66243 16.3928V8.14537C4.66243 8.06764 4.75194 7.98959 4.8208 7.94976L11.9848 3.82766C12.0518 3.78976 12.1501 3.78976 12.2169 3.82766L19.2935 7.94879C19.3613 7.98959 19.3374 8.06522 19.3374 8.14537V16.3928C19.3374 16.4715 19.3669 16.5481 19.3 16.586L12.1904 20.7105C12.1295 20.7471 12.0539 20.7471 11.9871 20.7105L10.1637 19.6221C10.1087 19.5902 10.0434 19.5787 9.99063 19.6082C9.48329 19.8958 9.38976 19.934 8.91386 20.099C8.79678 20.1398 8.62407 20.2106 8.97998 20.4101L11.3664 21.8218C11.5942 21.9534 11.8527 22.0227 12.1158 22.0227C12.3806 22.0227 12.6399 21.954 12.8684 21.8218L19.9455 17.6963C20.4083 17.4267 20.6277 16.928 20.6277 16.3928V8.14537C20.6277 7.61013 20.4083 7.11102 19.9457 6.84348ZM14.3238 15.0859C12.4328 15.0859 12.0163 14.5642 11.8774 13.6239C11.8613 13.5226 11.7753 13.4015 11.6723 13.4015H10.7481C10.6338 13.4015 10.5418 13.5402 10.5418 13.654C10.5418 14.858 11.1964 16.3168 14.324 16.3168C16.588 16.3168 17.886 15.4371 17.886 13.8803C17.886 12.3366 16.8431 11.9315 14.6475 11.641C12.4281 11.3476 12.2027 11.1994 12.2027 10.6795C12.2027 10.2508 12.3936 9.67916 14.0369 9.67916C15.5052 9.67916 16.0465 9.99427 16.2692 10.984C16.2882 11.077 16.3732 11.1438 16.4691 11.1438H17.397C17.4541 11.1438 17.5086 11.1207 17.5486 11.0799C17.5873 11.036 17.6078 10.9811 17.6027 10.922C17.459 9.21778 16.3267 8.42355 14.0368 8.42355C11.9998 8.42355 10.7847 9.28374 10.7847 10.7256C10.7847 12.2896 11.9937 12.7217 13.949 12.9151C16.2882 13.1444 16.4701 13.4863 16.4701 13.9464C16.4701 14.7455 15.8286 15.0859 14.3238 15.0859Z" fill="#82BC4F"/>
</svg>
