<svg width="24" height="25" viewBox="0 0 24 25" fill="none" xmlns="http://www.w3.org/2000/svg">
<path d="M12.5611 19.216C12.3877 19.0628 12.2069 18.909 12.0341 18.7386C11.896 18.8663 11.7666 18.9859 11.6297 19.1049C9.92006 20.5787 8.15785 21.1923 7.11324 20.5958C6.10271 20.025 5.78436 18.3387 6.1888 16.2172C6.23194 15.9872 6.28375 15.7573 6.34422 15.5273C6.1628 15.4739 5.99005 15.4248 5.81729 15.3671C3.66624 14.6329 2.25012 13.4405 2.25012 12.2476C2.25012 11.098 3.57149 9.98196 5.63529 9.26644C5.8664 9.18954 6.11022 9.11318 6.36098 9.04484C6.3032 8.82324 6.25756 8.61018 6.21422 8.40406C5.78205 6.25054 6.08422 4.53007 7.10341 3.9507C8.16536 3.33716 9.92757 3.99342 11.6973 5.53501C11.8007 5.62846 11.9047 5.73098 12.0168 5.83297C12.1809 5.67972 12.3363 5.52647 12.5004 5.3903C14.1759 3.94857 15.8422 3.34571 16.8614 3.92507C17.9234 4.52099 18.2348 6.36107 17.7599 8.63581C17.7339 8.78105 17.7021 8.91722 17.6651 9.06299C17.8812 9.1228 18.0967 9.19061 18.2955 9.25896C20.4026 9.97449 21.7673 11.0905 21.75 12.2658C21.75 13.4667 20.2905 14.6511 18.0522 15.3837C17.9315 15.4178 17.8107 15.4606 17.6894 15.4942C17.7414 15.6645 17.7755 15.8349 17.8101 16.0052C18.2591 18.2116 17.9135 20.0175 16.8689 20.614C16.5946 20.7666 16.2791 20.8444 15.9589 20.8382C15.0016 20.8366 13.7859 20.2541 12.5611 19.216ZM14.2539 16.0896C13.7579 16.8028 13.2127 17.4857 12.6217 18.1342C12.7858 18.2944 12.9499 18.4412 13.114 18.5774C14.5388 19.7868 15.8515 20.2386 16.4651 19.8894C16.6525 19.7402 16.8056 19.5578 16.9153 19.353C17.0251 19.1482 17.0893 18.9251 17.1041 18.697C17.2288 17.8516 17.1936 16.9927 17.0001 16.1585C16.9741 16.0052 16.9423 15.852 16.8967 15.6902C16.0265 15.8784 15.1436 16.0118 14.2539 16.0896ZM7.01675 16.3624C6.66315 18.178 6.92199 19.5311 7.53674 19.8808C7.75454 19.9649 7.98969 20.0038 8.22553 19.9945C8.46137 19.9853 8.69212 19.9283 8.90144 19.8274C9.71577 19.5111 10.4574 19.0542 11.0866 18.4813C11.216 18.3787 11.3368 18.2597 11.4668 18.1406C10.8628 17.4919 10.3032 16.809 9.79121 16.096C8.90493 16.0276 8.02481 15.9027 7.15715 15.7222C7.10341 15.9449 7.06008 16.1574 7.01675 16.3624ZM12.0434 17.5548C12.4235 17.1372 12.8031 16.6775 13.1833 16.1665C12.8031 16.1836 12.4062 16.1921 12.0087 16.1921C11.6112 16.1921 11.2403 16.1836 10.8688 16.1665C11.257 16.6684 11.6464 17.1372 12.0434 17.5548ZM10.2292 9.2408C9.90099 9.7091 9.58148 10.202 9.27931 10.7231C8.97713 11.2341 8.70153 11.7537 8.4502 12.2717C8.70962 12.7827 8.9858 13.3022 9.28797 13.8309C9.59015 14.3419 9.90966 14.8454 10.2378 15.3212C10.8075 15.3554 11.4038 15.3746 12.0081 15.3746C12.6125 15.3746 13.2168 15.3575 13.7958 15.3153C14.1066 14.847 14.4261 14.344 14.7289 13.8245C15.0316 13.3049 15.3159 12.7768 15.5666 12.2658C15.3159 11.7633 15.031 11.2437 14.7289 10.7237C14.4267 10.2036 14.1072 9.7091 13.7877 9.24134C13.2099 9.19862 12.6131 9.17299 12.0087 9.17299C11.4044 9.17299 10.8081 9.19809 10.2292 9.2408ZM7.37959 14.9394C7.97212 15.0645 8.57185 15.1584 9.17589 15.2208C8.96847 14.8972 8.76162 14.5731 8.56287 14.2324C8.37278 13.9003 8.18269 13.5681 8.00994 13.236C7.75977 13.8148 7.55234 14.3867 7.37959 14.9394ZM15.454 14.2239C15.2552 14.5645 15.0565 14.8881 14.8583 15.2037C15.4714 15.1327 16.0797 15.0304 16.6806 14.8972C16.493 14.3222 16.2739 13.7563 16.0242 13.2018C15.8428 13.5425 15.6527 13.8832 15.454 14.2239ZM5.9028 10.0498C4.14117 10.6633 3.07923 11.5567 3.07923 12.2562C3.11281 12.4812 3.19415 12.6979 3.31859 12.8938C3.44302 13.0897 3.60809 13.261 3.80433 13.3978C4.47835 13.9216 5.25128 14.3259 6.08422 14.5902C6.23964 14.6436 6.40373 14.6842 6.56782 14.7354C6.83309 13.8975 7.15319 13.0753 7.52634 12.2733C7.15247 11.485 6.83517 10.6748 6.57649 9.84794C6.34345 9.90561 6.11889 9.97289 5.9028 10.0498ZM16.4992 12.2562C16.8824 13.048 17.2104 13.8617 17.4814 14.6922C17.594 14.658 17.7061 14.6238 17.8095 14.5896C19.7353 13.9596 20.9295 12.9968 20.9359 12.2471C20.9359 11.5486 19.8306 10.6452 18.0256 10.0322C17.8442 9.97289 17.646 9.91308 17.4479 9.85328C17.1862 10.6718 16.8694 11.4743 16.4992 12.2562ZM15.4459 10.297C15.6446 10.6377 15.8347 10.9704 16.0069 11.3025C16.2468 10.7597 16.4544 10.2051 16.6286 9.64129C16.042 9.50957 15.4481 9.40725 14.8496 9.33478C15.057 9.6493 15.2558 9.96488 15.4459 10.297ZM7.38826 9.63435C7.56159 10.1795 7.76843 10.7333 8.00994 11.3036C8.18327 10.9714 8.37278 10.6393 8.56287 10.3072C8.75296 9.97502 8.95113 9.65143 9.15855 9.33585C8.53687 9.41114 7.94985 9.51313 7.38826 9.63435ZM13.0447 6.01399C12.8979 6.14161 12.7511 6.27777 12.6038 6.41447C13.2035 7.05497 13.7547 7.73295 14.2534 8.44358C15.1322 8.52198 16.0038 8.65868 16.8614 8.8526C16.8961 8.72498 16.9192 8.59683 16.9481 8.46921C17.3525 6.51005 17.1035 5.01065 16.4472 4.63633C16.3031 4.56159 16.1397 4.52467 15.9745 4.52953C15.2691 4.52633 14.1863 5.03414 13.0447 6.01239V6.01399ZM7.51768 4.65769C6.90466 5.00691 6.66257 6.40379 7.02542 8.24387C7.06875 8.43984 7.11208 8.63528 7.1635 8.83979C8.02229 8.65299 8.89357 8.5192 9.77157 8.43931C10.2721 7.72778 10.8262 7.04973 11.4298 6.4102C11.335 6.31622 11.231 6.23132 11.1363 6.14588C9.9345 5.09555 8.77896 4.54128 8.02438 4.54128C7.84705 4.53569 7.67154 4.57601 7.51768 4.65769ZM13.1654 8.37149C12.8093 7.89525 12.425 7.43747 12.0145 7.00024C11.6262 7.41728 11.2374 7.87756 10.8589 8.37149C11.2391 8.3544 11.6187 8.34586 12.0076 8.34586C12.3964 8.34586 12.7852 8.3528 13.1654 8.37149ZM10.2812 12.2903C10.2731 12.0714 10.3118 11.8532 10.3951 11.6481C10.4785 11.443 10.6048 11.2551 10.7668 11.0953C10.9289 10.9354 11.1235 10.8066 11.3394 10.7164C11.5554 10.6261 11.7885 10.5762 12.0255 10.5693C12.5035 10.5844 12.9555 10.774 13.2825 11.0966C13.6095 11.4192 13.7847 11.8485 13.7698 12.2903C13.7852 12.7325 13.6101 13.1623 13.2829 13.4853C12.9558 13.8083 12.5033 13.998 12.0249 14.0129C11.7878 14.0061 11.5546 13.9561 11.3385 13.8657C11.1225 13.7754 10.9278 13.6465 10.7658 13.4864C10.6038 13.3264 10.4776 13.1383 10.3944 12.9331C10.3112 12.7278 10.2728 12.5094 10.2812 12.2903Z" fill="#3996DB"/>
</svg>
